<svg width="60" height="60" viewBox="0 0 60 60" fill="none" xmlns="http://www.w3.org/2000/svg">
<path d="M30 60C46.5685 60 60 46.5685 60 30C60 13.4315 46.5685 0 30 0C13.4315 0 0 13.4315 0 30C0 46.5685 13.4315 60 30 60Z" fill="#F53838"/>
<path d="M21.25 28.7499H36.075L31.5375 23.2999C31.3253 23.0446 31.2232 22.7155 31.2537 22.385C31.2842 22.0544 31.4447 21.7496 31.7 21.5374C31.9553 21.3252 32.2844 21.2231 32.6149 21.2536C32.9454 21.2841 33.2503 21.4446 33.4625 21.6999L39.7125 29.1999C39.7545 29.2595 39.7922 29.3222 39.825 29.3874C39.825 29.4499 39.825 29.4874 39.9125 29.5499C39.9692 29.6932 39.9988 29.8458 40 29.9999C39.9988 30.154 39.9692 30.3066 39.9125 30.4499C39.9125 30.5124 39.9125 30.5499 39.825 30.6124C39.7922 30.6776 39.7545 30.7402 39.7125 30.7999L33.4625 38.2999C33.345 38.441 33.1978 38.5545 33.0314 38.6322C32.8651 38.71 32.6836 38.7502 32.5 38.7499C32.2079 38.7505 31.9249 38.6487 31.7 38.4624C31.5734 38.3574 31.4688 38.2286 31.3921 38.0831C31.3154 37.9377 31.2682 37.7786 31.2531 37.6149C31.238 37.4511 31.2553 37.286 31.3041 37.129C31.3529 36.972 31.4322 36.8262 31.5375 36.6999L36.075 31.2499H21.25C20.9185 31.2499 20.6005 31.1182 20.3661 30.8838C20.1317 30.6493 20 30.3314 20 29.9999C20 29.6684 20.1317 29.3504 20.3661 29.116C20.6005 28.8816 20.9185 28.7499 21.25 28.7499Z" fill="white"/>
</svg>
